<?xml version="1.0" encoding="UTF-8"?>
<!-- Generator: visioncortex VTracer 0.6.12 -->
<svg version="1.1" xmlns="http://www.w3.org/2000/svg" width="1104" height="976">
<path d="M0 0 C364.32 0 728.64 0 1104 0 C1104 322.08 1104 644.16 1104 976 C739.68 976 375.36 976 0 976 C0 653.92 0 331.84 0 0 Z " fill="#D4675D" transform="translate(0,0)"/>
<path d="M0 0 C364.32 0 728.64 0 1104 0 C1104 322.08 1104 644.16 1104 976 C739.68 976 375.36 976 0 976 C0 653.92 0 331.84 0 0 Z M513 56 C511.98 56.19 510.95 56.38 509.9 56.57 C462.95 65.4 418.66 86.91 384 120 C382.58 121.24 381.15 122.47 379.69 123.75 C348.13 151.56 323.37 192.13 308.53 231.35 C308.28 231.79 308.28 231.79 307 234 C305.35 234.33 303.7 234.66 302 235 C301.6 233.75 301.2 232.5 300.79 231.22 C289.15 197.21 271.17 164.77 237.98 147.96 C205.75 133.3 169.32 133.65 136 145 C88.41 163.27 59.56 204.05 39.33 249.09 C-10.93 364.38 4.52 500.88 48.91 615.32 C56.32 633.96 64.82 652.17 74 670 C74.83 671.63 75.66 673.26 76.52 674.94 C96.1 712.97 120.67 748.95 149 781 C149.8 781.91 150.6 782.82 151.42 783.76 C157.72 790.79 164.35 797.49 171 804.19 C171.91 805.11 172.83 806.04 173.77 807 C181.95 815.18 190.75 822.36 199.94 829.38 C200.47 829.78 200.47 829.78 203.15 831.84 C209.95 837 209.95 837 212 837 C211.97 835.78 211.95 834.57 211.92 833.31 C211.09 788.89 211.09 788.89 216.31 766.9 C216.97 764.13 217.55 761.34 218.13 758.55 C227.28 716.26 247.02 675.67 274 642 C274.75 641.06 275.5 640.12 276.27 639.14 C280.02 634.49 283.88 630.01 287.94 625.62 C294.99 617.96 301.29 609.72 307 601 C306.67 600.34 306.34 599.68 306 599 C305.5 599.54 305.5 599.54 303 602.25 C284.04 621.14 256.29 638.81 228.94 639.38 C214.7 639.09 202.14 634.14 192 624 C177.08 605.02 169.54 582.2 169.75 558.19 C169.76 557.05 169.76 555.91 169.77 554.73 C169.87 546.35 170.38 538.24 172 530 C172.26 528.68 172.51 527.35 172.78 525.99 C179.27 495.75 193.64 469.21 215 447 C216.22 445.66 217.43 444.32 218.69 442.94 C239.19 424.22 263.8 414.72 291.46 415.65 C298.29 416.08 304.47 416.95 311 419 C312.29 419.4 313.58 419.8 314.91 420.22 C338.97 428.49 356.66 445.18 368 467.75 C379.03 492.43 381.37 520.35 383 547 C383.76 546.56 384.51 546.12 385.29 545.67 C389.18 543.43 393.09 541.21 397 539 C398.7 538.04 400.41 537.07 402.16 536.08 C425.8 522.85 457.39 505.68 485.31 512.25 C489.43 513.79 491.8 515.1 495 518 C495.66 518 496.32 518 497 518 C497.33 518.99 497.66 519.98 498 521 C498.33 521 498.66 521 499 521 C499.02 520.54 499.02 520.54 499.14 518.22 C506.31 374.24 506.31 374.24 535.56 345.5 C542.78 340.25 550.33 340.19 559 341 C572.63 346.23 578.89 357.92 584.69 370.69 C588.42 379.59 591.26 388.76 594 398 C597.05 394.95 599.27 392.36 601.69 388.88 C614.92 370.47 631.52 357.24 653.38 350.69 C670.91 348.08 685.31 351.73 699.76 361.95 C719.51 377.31 735.12 401.03 739 426 C739.76 437.01 738.75 446.36 733 456 C727.2 461.8 722.32 464.7 714.12 465.44 C702.22 464.42 694.11 457.24 686 449 C676.89 439.75 668.98 434.03 655.56 433.5 C643.58 433.8 636.14 439.89 628 448 C627.27 448.71 626.54 449.41 625.79 450.14 C606.18 470.38 592.97 500.09 586.92 527.44 C586.79 528.02 586.79 528.02 586.15 530.95 C583.34 544.25 582.08 557.66 580.88 571.19 C576.33 621.18 576.33 621.18 562 637 C555.62 642.1 551.42 643.5 543.13 643.39 C535.89 642.48 531.7 637.75 526.94 632.62 C511.88 612.42 503.19 582.78 501.38 557.88 C501.25 556.27 501.13 554.66 501 553 C500.34 552.67 499.68 552.34 499 552 C498.24 553.73 497.47 555.46 496.69 557.25 C485.6 579.32 461.82 591.77 441.09 603.18 C383.12 635.26 383.12 635.26 378.95 648.41 C374.75 664.24 371.84 680.17 369.44 696.38 C369.14 698.37 368.83 700.36 368.53 702.36 C367.94 706.21 367.35 710.07 366.77 713.93 C359.53 761.66 351.35 812.36 316.88 848.81 C315 851 315 851 313 855 C311.68 855.66 310.36 856.32 309 857 C307.74 858.18 306.48 859.35 305.19 860.56 C297.02 867.98 286.94 873.33 277 878 C315.85 907.13 370.7 921.77 418 929 C418.58 929.09 418.58 929.09 421.54 929.55 C460.34 935.19 502.06 933.52 541 930 C542.76 929.85 544.52 929.7 546.34 929.54 C609.9 924.01 672.41 912.19 733 892 C734.75 891.43 736.5 890.85 738.3 890.26 C757.79 883.67 776.79 875.57 795 866 C795.67 865.66 795.67 865.66 799.08 863.93 C822.05 852.11 842.9 837.15 863 821 C863.94 820.25 864.88 819.51 865.85 818.74 C872.07 813.75 877.95 808.45 883.76 802.99 C886.03 800.89 888.35 798.84 890.69 796.82 C895.01 792.99 899.11 789.02 903.19 784.94 C903.94 784.19 904.69 783.45 905.46 782.67 C907.03 781.1 908.6 779.53 910.17 777.96 C912.56 775.57 914.94 773.19 917.33 770.8 C918.87 769.27 920.41 767.73 921.94 766.19 C923.32 764.81 924.7 763.43 926.12 762.01 C929.89 758.12 933.46 754.1 937 750 C938.79 748.06 940.58 746.12 942.38 744.19 C946.66 739.53 950.73 734.76 954.7 729.83 C957.18 726.77 959.74 723.8 962.31 720.81 C968.55 713.46 974.28 705.76 980 698 C980.92 696.77 981.84 695.55 982.78 694.28 C1003.12 666.93 1021.18 637.7 1036 607 C1036.91 605.17 1037.82 603.34 1038.73 601.52 C1096.83 483.99 1112.73 335.37 1076.57 195.52 C1065.78 165.46 1049.01 138.91 1020.04 123.96 C984.37 107.54 945.77 112.65 910.01 125.85 C886.39 134.9 866.21 148.62 848 166 C847.15 166.8 846.29 167.6 845.41 168.43 C803.82 208.51 789.74 267.76 784.49 323.23 C783.97 327.26 783.06 331.08 782 335 C770.86 329.43 765.62 313.69 760 303 C759.76 302.55 759.76 302.55 758.57 300.3 C745.68 275.78 735.02 250.11 724.38 224.56 C698.98 163.84 664.34 89.39 600 62 C583.97 55.86 568.61 52.44 551.44 52.62 C550.74 52.63 550.74 52.63 547.2 52.66 C535.58 52.83 524.44 53.85 513 56 Z " fill="#F4F3EB" transform="translate(0,0)"/>
<path d="M0 0 C11.9 10.9 18.09 24.11 19.81 40.12 C20.48 45.68 21.72 50.32 23.81 55.5 C40.64 97.44 35.13 145.94 19 187 C12.52 201.48 3.83 213.51 -7 225 C-7.67 225.75 -8.35 226.5 -9.04 227.27 C-22.99 242.19 -43.93 253.01 -64.49 254.2 C-90.86 254.53 -111.7 246.1 -130.69 227.88 C-159.8 197.83 -165.81 157.28 -165.24 117.09 C-164.39 86.06 -155.7 54.14 -137 29 C-136.39 28.17 -135.78 27.33 -135.14 26.47 C-117.73 3.75 -94.25 -11.03 -65.88 -15.42 C-42.88 -18.15 -18.68 -14.47 0 0 Z " fill="#F4F3EB" transform="translate(899,391)"/>
<path d="M0 0 C2.41 9.64 -8.09 22.09 -12.94 30.25 C-30.58 59.19 -30.58 59.19 -45 64 C-51.05 64.62 -52.62 64.23 -58 61 C-61.98 54.37 -62.15 49.58 -61 42 C-57.34 31.77 -51.81 23.47 -44 16 C-43.3 15.28 -42.61 14.57 -41.89 13.83 C-30.1 2.37 -15.88 -0.4 0 0 Z " fill="#D0695F" transform="translate(318,494)"/>
<path d="M0 0 C0.66 0 1.32 0 2 0 C2.31 7.91 1.14 15.25 -0.25 23 C-0.37 23.65 -0.37 23.65 -0.95 26.92 C-5.53 52.29 -11.41 83.07 -29 103 C-34 106 -34 106 -40 106 C-44.54 99.95 -43.71 94.35 -43 87 C-40.33 74.34 -34.53 62.62 -29 51 C-28.23 49.37 -27.45 47.74 -26.65 46.05 C-18.91 30.17 -10.23 14.43 0 0 Z " fill="#CD6960" transform="translate(302,713)"/>
<path d="M0 0 C0.99 0.33 1.98 0.66 3 1 C9.21 16.53 4.98 41.51 -1.16 56.92 C-3.3 61.46 -4.93 63.95 -9 67 C-13.44 68 -13.44 68 -18 68 C-20.81 65.84 -22.42 64.15 -24 61 C-25.06 38.27 -14.18 17.28 0 0 Z " fill="#CF6B61" transform="translate(873,481)"/>
</svg>
