<svg xmlns="http://www.w3.org/2000/svg" viewBox="0 0 1104 976">
  <g transform="translate(0.000000,976.000000) scale(0.100000,-0.100000)">
    <path fill="#1f1e1b" fill-rule="evenodd" d="M5330 9229 c-937 -97 -1690 -641 -2138 -1544 -32 -66 -72 -150 -87
-188 -47 -114 -73 -110 -121 17 -102 270 -196 430 -339 571 -213 214 -452 307
-783 306 -560 -2 -972 -251 -1292 -781 -457 -757 -597 -1809 -391 -2936 201
-1096 781 -2220 1523 -2950 104 -103 380 -334 397 -334 25 1 28 19 19 115 -22
223 27 577 118 868 46 146 163 429 216 522 28 50 69 122 90 162 51 90 227 324
323 428 155 168 236 310 124 217 -449 -371 -807 -435 -1053 -189 -164 165
-264 491 -236 777 62 652 469 1188 985 1301 93 21 294 15 389 -10 261 -69 476
-241 593 -476 79 -157 153 -506 153 -724 0 -93 9 -95 124 -27 289 172 623 296
799 296 84 0 146 -20 200 -64 24 -20 47 -33 50 -29 4 3 7 61 7 127 0 278 47
652 141 1124 72 364 180 531 354 549 164 17 304 -139 404 -452 43 -131 52
-136 104 -55 117 180 335 348 514 394 258 67 510 -63 712 -366 117 -174 147
-257 158 -424 8 -138 -10 -197 -85 -271 -62 -60 -109 -78 -188 -70 -83 9 -157
58 -297 200 -83 84 -148 112 -257 112 -113 0 -165 -27 -280 -144 -120 -121
-242 -321 -332 -546 -73 -180 -105 -337 -138 -674 -12 -113 -25 -237 -31 -276
-44 -314 -186 -491 -364 -453 -155 33 -320 363 -390 778 -20 115 -30 124 -67
60 -76 -133 -259 -282 -528 -430 -225 -123 -489 -286 -572 -353 -59 -47 -102
-194 -153 -522 -121 -774 -169 -979 -286 -1223 -133 -276 -322 -485 -549 -606
-46 -24 -85 -52 -86 -60 -3 -20 350 -199 542 -277 612 -246 1183 -311 2094
-239 670 53 1282 173 1875 367 678 221 1164 523 1731 1076 1354 1317 1957
2756 1921 4582 -18 905 -175 1517 -470 1832 -337 360 -907 410 -1497 131 -664
-314 -1033 -914 -1124 -1829 -16 -153 -27 -199 -49 -199 -38 0 -128 146 -264
429 -80 165 -125 265 -278 621 -296 687 -519 1062 -797 1340 -340 340 -682
465 -1138 419z m3291 -3239 c326 -47 520 -237 558 -547 6 -45 22 -110 36 -145
44 -108 75 -246 92 -421 66 -660 -237 -1293 -717 -1498 -363 -154 -782 -10
-1023 353 -217 326 -281 839 -165 1318 155 641 649 1022 1219 940z"/>
  </g>
</svg>